<mxfile host="app.diagrams.net" modified="2023-11-15T03:50:22.866Z" agent="Mozilla/5.0 (Macintosh; Intel Mac OS X 10_15_7) AppleWebKit/537.36 (KHTML, like Gecko) Chrome/119.0.0.0 Safari/537.36" etag="jF3OJ5YEzbSNRgMbjQT8" version="22.1.1" type="device">
  <diagram name="Page-1" id="9f46799a-70d6-7492-0946-bef42562c5a5">
    <mxGraphModel dx="2449" dy="1342" grid="1" gridSize="10" guides="1" tooltips="1" connect="1" arrows="1" fold="1" page="1" pageScale="1" pageWidth="1100" pageHeight="850" background="none" math="0" shadow="0">
      <root>
        <mxCell id="0" />
        <mxCell id="1" parent="0" />
        <mxCell id="uYNukXm85_UM9o9sfT8n-2" value="Summarizer" style="swimlane;fontStyle=0;childLayout=stackLayout;horizontal=1;startSize=30;horizontalStack=0;resizeParent=1;resizeParentMax=0;resizeLast=0;collapsible=1;marginBottom=0;whiteSpace=wrap;html=1;" vertex="1" parent="1">
          <mxGeometry x="610" y="365" width="220" height="120" as="geometry" />
        </mxCell>
        <mxCell id="uYNukXm85_UM9o9sfT8n-3" value="Language: Python" style="text;strokeColor=none;fillColor=none;align=left;verticalAlign=middle;spacingLeft=4;spacingRight=4;overflow=hidden;points=[[0,0.5],[1,0.5]];portConstraint=eastwest;rotatable=0;whiteSpace=wrap;html=1;" vertex="1" parent="uYNukXm85_UM9o9sfT8n-2">
          <mxGeometry y="30" width="220" height="30" as="geometry" />
        </mxCell>
        <mxCell id="uYNukXm85_UM9o9sfT8n-4" value="Input: String (Paragraph)" style="text;strokeColor=none;fillColor=none;align=left;verticalAlign=middle;spacingLeft=4;spacingRight=4;overflow=hidden;points=[[0,0.5],[1,0.5]];portConstraint=eastwest;rotatable=0;whiteSpace=wrap;html=1;" vertex="1" parent="uYNukXm85_UM9o9sfT8n-2">
          <mxGeometry y="60" width="220" height="30" as="geometry" />
        </mxCell>
        <mxCell id="uYNukXm85_UM9o9sfT8n-5" value="Output: String" style="text;strokeColor=none;fillColor=none;align=left;verticalAlign=middle;spacingLeft=4;spacingRight=4;overflow=hidden;points=[[0,0.5],[1,0.5]];portConstraint=eastwest;rotatable=0;whiteSpace=wrap;html=1;" vertex="1" parent="uYNukXm85_UM9o9sfT8n-2">
          <mxGeometry y="90" width="220" height="30" as="geometry" />
        </mxCell>
        <mxCell id="uYNukXm85_UM9o9sfT8n-6" value="User Authenication" style="swimlane;fontStyle=0;childLayout=stackLayout;horizontal=1;startSize=30;horizontalStack=0;resizeParent=1;resizeParentMax=0;resizeLast=0;collapsible=1;marginBottom=0;whiteSpace=wrap;html=1;" vertex="1" parent="1">
          <mxGeometry x="270" y="365" width="220" height="120" as="geometry" />
        </mxCell>
        <mxCell id="uYNukXm85_UM9o9sfT8n-7" value="Language: Javascript" style="text;strokeColor=none;fillColor=none;align=left;verticalAlign=middle;spacingLeft=4;spacingRight=4;overflow=hidden;points=[[0,0.5],[1,0.5]];portConstraint=eastwest;rotatable=0;whiteSpace=wrap;html=1;" vertex="1" parent="uYNukXm85_UM9o9sfT8n-6">
          <mxGeometry y="30" width="220" height="30" as="geometry" />
        </mxCell>
        <mxCell id="uYNukXm85_UM9o9sfT8n-8" value="Input: username, password" style="text;strokeColor=none;fillColor=none;align=left;verticalAlign=middle;spacingLeft=4;spacingRight=4;overflow=hidden;points=[[0,0.5],[1,0.5]];portConstraint=eastwest;rotatable=0;whiteSpace=wrap;html=1;" vertex="1" parent="uYNukXm85_UM9o9sfT8n-6">
          <mxGeometry y="60" width="220" height="30" as="geometry" />
        </mxCell>
        <mxCell id="uYNukXm85_UM9o9sfT8n-9" value="Output: JWT, User info" style="text;strokeColor=none;fillColor=none;align=left;verticalAlign=middle;spacingLeft=4;spacingRight=4;overflow=hidden;points=[[0,0.5],[1,0.5]];portConstraint=eastwest;rotatable=0;whiteSpace=wrap;html=1;" vertex="1" parent="uYNukXm85_UM9o9sfT8n-6">
          <mxGeometry y="90" width="220" height="30" as="geometry" />
        </mxCell>
        <mxCell id="uYNukXm85_UM9o9sfT8n-17" style="edgeStyle=orthogonalEdgeStyle;rounded=0;orthogonalLoop=1;jettySize=auto;html=1;entryX=0;entryY=0.5;entryDx=0;entryDy=0;" edge="1" parent="1" source="uYNukXm85_UM9o9sfT8n-10" target="uYNukXm85_UM9o9sfT8n-14">
          <mxGeometry relative="1" as="geometry" />
        </mxCell>
        <mxCell id="uYNukXm85_UM9o9sfT8n-10" value="User" style="shape=umlActor;verticalLabelPosition=bottom;verticalAlign=top;html=1;outlineConnect=0;" vertex="1" parent="1">
          <mxGeometry x="-60" y="625" width="30" height="60" as="geometry" />
        </mxCell>
        <mxCell id="uYNukXm85_UM9o9sfT8n-13" value="Front End UI" style="swimlane;fontStyle=0;childLayout=stackLayout;horizontal=1;startSize=30;horizontalStack=0;resizeParent=1;resizeParentMax=0;resizeLast=0;collapsible=1;marginBottom=0;whiteSpace=wrap;html=1;" vertex="1" parent="1">
          <mxGeometry x="80" y="610" width="220" height="90" as="geometry" />
        </mxCell>
        <mxCell id="uYNukXm85_UM9o9sfT8n-14" value="Language: Javascript / React" style="text;strokeColor=none;fillColor=none;align=left;verticalAlign=middle;spacingLeft=4;spacingRight=4;overflow=hidden;points=[[0,0.5],[1,0.5]];portConstraint=eastwest;rotatable=0;whiteSpace=wrap;html=1;" vertex="1" parent="uYNukXm85_UM9o9sfT8n-13">
          <mxGeometry y="30" width="220" height="30" as="geometry" />
        </mxCell>
        <mxCell id="uYNukXm85_UM9o9sfT8n-15" value="Host on Render" style="text;strokeColor=none;fillColor=none;align=left;verticalAlign=middle;spacingLeft=4;spacingRight=4;overflow=hidden;points=[[0,0.5],[1,0.5]];portConstraint=eastwest;rotatable=0;whiteSpace=wrap;html=1;" vertex="1" parent="uYNukXm85_UM9o9sfT8n-13">
          <mxGeometry y="60" width="220" height="30" as="geometry" />
        </mxCell>
        <mxCell id="uYNukXm85_UM9o9sfT8n-18" style="edgeStyle=orthogonalEdgeStyle;rounded=0;orthogonalLoop=1;jettySize=auto;html=1;entryX=0.527;entryY=0.967;entryDx=0;entryDy=0;entryPerimeter=0;" edge="1" parent="1" source="uYNukXm85_UM9o9sfT8n-14" target="uYNukXm85_UM9o9sfT8n-9">
          <mxGeometry relative="1" as="geometry" />
        </mxCell>
        <mxCell id="uYNukXm85_UM9o9sfT8n-28" style="edgeStyle=orthogonalEdgeStyle;rounded=0;orthogonalLoop=1;jettySize=auto;html=1;entryX=0.25;entryY=0;entryDx=0;entryDy=0;" edge="1" parent="1" source="uYNukXm85_UM9o9sfT8n-23" target="uYNukXm85_UM9o9sfT8n-6">
          <mxGeometry relative="1" as="geometry" />
        </mxCell>
        <mxCell id="uYNukXm85_UM9o9sfT8n-23" value="User Database" style="strokeWidth=2;html=1;shape=mxgraph.flowchart.database;whiteSpace=wrap;" vertex="1" parent="1">
          <mxGeometry x="330" y="190" width="100" height="110" as="geometry" />
        </mxCell>
        <mxCell id="uYNukXm85_UM9o9sfT8n-27" style="edgeStyle=orthogonalEdgeStyle;rounded=0;orthogonalLoop=1;jettySize=auto;html=1;entryX=0.682;entryY=-0.022;entryDx=0;entryDy=0;entryPerimeter=0;" edge="1" parent="1" source="uYNukXm85_UM9o9sfT8n-9" target="uYNukXm85_UM9o9sfT8n-13">
          <mxGeometry relative="1" as="geometry" />
        </mxCell>
        <mxCell id="uYNukXm85_UM9o9sfT8n-29" style="edgeStyle=orthogonalEdgeStyle;rounded=0;orthogonalLoop=1;jettySize=auto;html=1;entryX=0.5;entryY=1;entryDx=0;entryDy=0;entryPerimeter=0;" edge="1" parent="1" source="uYNukXm85_UM9o9sfT8n-6" target="uYNukXm85_UM9o9sfT8n-23">
          <mxGeometry relative="1" as="geometry" />
        </mxCell>
        <mxCell id="uYNukXm85_UM9o9sfT8n-30" style="edgeStyle=orthogonalEdgeStyle;rounded=0;orthogonalLoop=1;jettySize=auto;html=1;entryX=0.5;entryY=0.967;entryDx=0;entryDy=0;entryPerimeter=0;" edge="1" parent="1" source="uYNukXm85_UM9o9sfT8n-15" target="uYNukXm85_UM9o9sfT8n-5">
          <mxGeometry relative="1" as="geometry" />
        </mxCell>
        <mxCell id="uYNukXm85_UM9o9sfT8n-36" style="edgeStyle=orthogonalEdgeStyle;rounded=0;orthogonalLoop=1;jettySize=auto;html=1;" edge="1" parent="1" source="uYNukXm85_UM9o9sfT8n-31" target="uYNukXm85_UM9o9sfT8n-2">
          <mxGeometry relative="1" as="geometry">
            <mxPoint x="680" y="360" as="targetPoint" />
          </mxGeometry>
        </mxCell>
        <mxCell id="uYNukXm85_UM9o9sfT8n-31" value="BART-larg-cnn&amp;nbsp;" style="swimlane;fontStyle=0;childLayout=stackLayout;horizontal=1;startSize=30;horizontalStack=0;resizeParent=1;resizeParentMax=0;resizeLast=0;collapsible=1;marginBottom=0;whiteSpace=wrap;html=1;" vertex="1" parent="1">
          <mxGeometry x="730" y="215" width="220" height="60" as="geometry" />
        </mxCell>
        <mxCell id="uYNukXm85_UM9o9sfT8n-32" value="Language: Python" style="text;strokeColor=none;fillColor=none;align=left;verticalAlign=middle;spacingLeft=4;spacingRight=4;overflow=hidden;points=[[0,0.5],[1,0.5]];portConstraint=eastwest;rotatable=0;whiteSpace=wrap;html=1;" vertex="1" parent="uYNukXm85_UM9o9sfT8n-31">
          <mxGeometry y="30" width="220" height="30" as="geometry" />
        </mxCell>
        <mxCell id="uYNukXm85_UM9o9sfT8n-35" style="edgeStyle=orthogonalEdgeStyle;rounded=0;orthogonalLoop=1;jettySize=auto;html=1;entryX=0.495;entryY=0.967;entryDx=0;entryDy=0;entryPerimeter=0;" edge="1" parent="1" source="uYNukXm85_UM9o9sfT8n-2" target="uYNukXm85_UM9o9sfT8n-32">
          <mxGeometry relative="1" as="geometry" />
        </mxCell>
      </root>
    </mxGraphModel>
  </diagram>
</mxfile>
